<?xml version="1.0" encoding="UTF-8" standalone="no"?>
<svg
   xmlns:dc="http://purl.org/dc/elements/1.1/"
   xmlns:cc="http://creativecommons.org/ns#"
   xmlns:rdf="http://www.w3.org/1999/02/22-rdf-syntax-ns#"
   xmlns:svg="http://www.w3.org/2000/svg"
   xmlns="http://www.w3.org/2000/svg"
   xmlns:sodipodi="http://sodipodi.sourceforge.net/DTD/sodipodi-0.dtd"
   xmlns:inkscape="http://www.inkscape.org/namespaces/inkscape"
   width="1427.5602"
   height="1337.8501"
   viewBox="0 -410 1465.6285 1270.9576"
   id="svg2"
   sodipodi:version="0.32"
   inkscape:version="0.48.2 r9819"
   sodipodi:docname="psi_uppercase.svg"
   inkscape:output_extension="org.inkscape.output.svg.inkscape"
   version="1.0">
  <metadata
     id="metadata15">
    <rdf:RDF>
      <cc:Work
         rdf:about="">
        <dc:format>image/svg+xml</dc:format>
        <dc:type
           rdf:resource="http://purl.org/dc/dcmitype/StillImage" />
      </cc:Work>
    </rdf:RDF>
  </metadata>
  <defs
     id="defs13" />
  <sodipodi:namedview
     inkscape:window-height="1061"
     inkscape:window-width="1920"
     inkscape:pageshadow="2"
     inkscape:pageopacity="0.0"
     guidetolerance="10.0"
     gridtolerance="10.0"
     objecttolerance="10.0"
     borderopacity="1.0"
     bordercolor="#666666"
     pagecolor="#ffffff"
     id="base"
     inkscape:zoom="0.19947368"
     inkscape:cx="1441.7151"
     inkscape:cy="796.68043"
     inkscape:window-x="1916"
     inkscape:window-y="-4"
     inkscape:current-layer="svg2"
     width="3000px"
     height="2000px"
     inkscape:showpageshadow="false"
     showgrid="false"
     fit-margin-top="0"
     fit-margin-left="0"
     fit-margin-right="0"
     fit-margin-bottom="0"
     inkscape:window-maximized="1" />
  <text
     xml:space="preserve"
     style="font-size:12px;font-style:normal;font-weight:normal;fill:#000000;fill-opacity:1;stroke:none;font-family:Lello"
     x="-639.21564"
     y="-1057.0605"
     id="text2171"><tspan
       sodipodi:role="line"
       id="tspan2173"
       x="-639.21564"
       y="-1057.0605" /></text>
  <path
     style="font-size:2050.27807617px;font-style:normal;font-weight:normal;fill:#000000;fill-opacity:1;stroke:none;font-family:Times New Roman"
     d="m 828.92102,230.12977 c 90.76656,6.5e-4 159.67636,-15.34972 206.72968,-46.05117 47.0512,-30.70005 78.4194,-68.07487 94.1046,-112.124577 15.6829,-44.04809 25.8609,-117.46292 30.5339,-220.244723 4.6707,-114.12566 30.199,-199.05327 76.5851,-254.78309 46.3836,-55.72724 122.6349,-83.59151 228.7542,-83.59288 l 0,38.04227 c -38.0437,2.67096 -63.9058,17.52078 -77.5862,44.5495 -13.6833,27.03129 -20.5242,84.26149 -20.5228,171.69076 0,128.14338 -13.5164,227.0865533 -40.5451,296.829813 -27.0313,69.744917 -81.2582,126.307707 -162.6807,169.688537 -81.4249,43.38215 -193.21572,66.74141 -335.37268,70.07787 l 0,317.35261 c -8.6e-4,78.08695 4.50416,128.64307 13.51506,151.66852 9.0091,23.02568 28.0302,41.54624 57.0634,55.56174 29.0313,14.01561 73.9144,21.02339 134.64962,21.02336 l 0,37.04115 -602.66968,0 0,-37.04115 c 59.39881,-0.66738 103.61457,-7.1746 132.64738,-19.5217 29.03164,-12.34698 48.38646,-30.36698 58.06452,-54.06006 9.67676,-23.69286 14.51547,-75.25009 14.51613,-154.67186 l 0,-200.06937 0,-117.28324 C 493.21416,300.87562 381.7571,277.85006 302.33593,235.13533 222.9141,192.4219 169.02094,136.52651 140.65628,67.449013 112.2913,-1.6268467 98.10889,-101.90484 98.10901,-233.38525 98.10889,-317.47748 91.76851,-373.37286 79.08787,-401.07157 66.40703,-428.76769 40.04443,-444.61862 0,-448.6244 l 0,-38.04227 c 67.40814,1.33619 121.80185,12.01471 163.18131,32.03559 41.37908,20.02357 74.58261,55.39617 99.61068,106.11791 25.02749,50.72421 39.20991,117.46497 42.54727,200.22247 4.67153,102.114395 14.51579,175.195523 29.53282,219.243603 15.01631,44.049717 46.55132,81.591387 94.60511,112.625137 48.05289,31.03516 117.12958,46.55238 207.23026,46.55173 l 0,-436.48498 c -6.6e-4,-78.0856 -4.50566,-128.64172 -13.51502,-151.66853 -9.01065,-23.02431 -27.86491,-41.21117 -56.56285,-54.56062 -28.69911,-13.34685 -73.74912,-20.35463 -135.15016,-21.02336 l 0,-37.04115 602.66968,0 0,37.04115 c -61.40262,0.66873 -106.45262,7.50966 -135.15022,20.52281 -28.6994,13.01574 -47.5537,31.2026 -56.5628,54.56062 -9.0109,23.36051 -13.51592,74.08348 -13.51506,152.16908 z"
     id="text2175"
     inkscape:connector-curvature="0"
     sodipodi:nodetypes="csccscccccsccccccccccsccccscccccccccscccccccccc" />
</svg>
